<svg
    width="35"
    height="35"
    viewBox="0 0 25 24"
    fill="none"
    xmlns="http://www.w3.org/2000/svg"
    >
    <g clip-path="url(#clip0)" stroke="000">
        <path
        d="M24.454 4.56909C23.569 4.95809 22.624 5.22309 21.629 5.34409C22.643 4.73309 23.423 3.77009 23.792 2.62109C22.841 3.17609 21.787 3.58009 20.665 3.80509C19.769 2.84609 18.492 2.24609 17.074 2.24609C14.357 2.24609 12.154 4.44909 12.154 7.16309C12.154 7.55309 12.199 7.92809 12.281 8.28709C8.191 8.09409 4.566 6.13009 2.14 3.16109C1.713 3.88309 1.474 4.72209 1.474 5.63609C1.474 7.34609 2.344 8.84909 3.662 9.73209C2.855 9.70609 2.096 9.48409 1.434 9.11609V9.17709C1.434 11.5621 3.127 13.5511 5.38 14.0041C4.967 14.1151 4.531 14.1751 4.084 14.1751C3.77 14.1751 3.469 14.1451 3.168 14.0891C3.799 16.0421 5.613 17.4661 7.772 17.5061C6.092 18.8251 3.963 19.6111 1.67 19.6111C1.28 19.6111 0.891 19.5881 0.5 19.5441C2.689 20.9381 5.268 21.7531 8.057 21.7531C17.111 21.7531 22.056 14.2571 22.056 7.76709C22.056 7.55809 22.056 7.34709 22.041 7.13709C23.002 6.44809 23.841 5.57709 24.501 4.58909L24.454 4.56909Z"
        fill="#000"
        />
    </g>
</svg>